<svg width="462" height="153" viewBox="0 0 462 153" fill="none" xmlns="http://www.w3.org/2000/svg">
<mask id="mask0_1621_1886" style="mask-type:luminance" maskUnits="userSpaceOnUse" x="93" y="0" width="307" height="97">
<path d="M93.6182 43.513C178.367 125.95 225.007 8.67207 253.283 34.6804C253.283 34.6804 211.565 51.3578 204.746 96.7898C260.418 31.1983 330.784 53.8057 378.994 95.7382C378.994 95.7382 377.244 75.4165 350.474 51.7604C367.67 41.236 398.835 49.0432 399.834 31.0303C353.916 29.6832 369.495 -3.06613 361.691 0.233427C338.675 9.96119 345.512 42.8931 299.915 31.8878C286.256 28.5969 274.486 26.6299 260.418 31.1954C219.03 -29.2048 158.969 49.1214 93.6182 43.513Z" fill="white"/>
</mask>
<g mask="url(#mask0_1621_1886)">
<path d="M76.9688 88.0312L346.551 188.849L412.33 12.9554L142.746 -87.8594L76.9688 88.0312Z" fill="white"/>
</g>
<mask id="mask1_1621_1886" style="mask-type:luminance" maskUnits="userSpaceOnUse" x="93" y="8" width="246" height="89">
<path d="M253.329 61.2269C288.552 30.2678 322.095 57.29 338.355 24.8767C331.533 32.371 321.718 37.1537 299.914 31.893C286.255 28.6021 274.485 26.6351 260.417 31.2006C219.029 -29.2054 158.968 49.1208 93.6172 43.5153C178.366 125.952 225.006 8.67438 253.282 34.6827C253.282 34.6827 211.564 51.3601 204.745 96.7921C220.084 78.7242 236.535 67.3481 253.329 61.2269Z" fill="white"/>
</mask>
<g mask="url(#mask1_1621_1886)">
<path d="M76.9697 88.0316L285.563 166.039L341.459 16.5798L132.862 -61.4277L76.9697 88.0316Z" fill="#EB4E00"/>
</g>
<mask id="mask2_1621_1886" style="mask-type:luminance" maskUnits="userSpaceOnUse" x="93" y="23" width="161" height="51">
<path d="M93.6191 43.51C178.368 125.947 225.008 8.66906 253.284 34.6774C214.315 -8.09526 178.214 83.8376 93.6191 43.51Z" fill="white"/>
</mask>
<g mask="url(#mask2_1621_1886)">
<path d="M76.9688 88.0264L214.148 139.328L262.535 9.9378L125.356 -41.3633L76.9688 88.0264Z" fill="white"/>
</g>
<mask id="mask3_1621_1886" style="mask-type:luminance" maskUnits="userSpaceOnUse" x="298" y="33" width="101" height="63">
<path d="M398.61 35.8304C344.867 25.5 345.765 59.2865 298.021 56.294C327.408 59.8253 355.771 75.541 378.995 95.741C378.995 95.741 377.246 75.4193 350.476 51.7633C365.899 42.3223 392.556 47.6323 398.61 35.8304Z" fill="white"/>
</mask>
<g mask="url(#mask3_1621_1886)">
<path d="M295.015 64.3351L378.996 95.7403L401.055 36.7451L317.077 5.33984L295.015 64.3351Z" fill="white"/>
</g>
<path d="M42.9268 102.823C42.9992 102.733 43.0688 102.646 43.1412 102.557C47.5242 97.0758 51.9043 91.5948 56.2989 86.1197C61.7392 79.341 61.6292 79.538 54.0335 74.9753C49.7635 72.4116 47.2751 72.6405 44.0219 76.951C40.0908 82.1625 36.0525 87.2958 31.9766 92.3973C30.5832 91.6441 29.1898 91.1574 27.7703 90.9314C27.8253 88.246 27.8891 85.5606 27.9876 82.8752C28.1845 77.4783 26.0901 75.7372 20.3253 75.0507C10.0732 73.8311 10.1166 73.608 10.1021 82.3016C10.0905 89.3179 10.0587 96.337 10.0326 103.353C10.0123 109.159 9.99205 114.964 9.97178 120.769C9.96309 123.298 9.95729 125.827 9.9457 128.353C9.93991 129.941 9.77189 131.404 9.27363 132.705C8.45381 134.848 6.73595 136.54 3.34948 137.571C-3.20908 139.57 1.91842 143.782 1.73591 146.928C1.57369 149.727 3.49722 150.746 7.23711 150.494C21.5304 149.521 27.4227 144.541 27.5588 132.212C27.5965 128.794 27.6081 125.373 27.6139 121.954C29.5171 119.57 31.4262 117.192 33.3294 114.811C37.7066 119.822 42.0838 124.834 46.461 129.842C51.0787 135.126 55.6992 140.407 60.3082 145.7C66.018 152.256 65.8441 152.111 71.6756 145.445C74.9549 141.697 75.1692 139.205 71.5047 135.242C61.7277 124.669 52.4142 113.666 42.9268 102.823Z" fill="white"/>
<path d="M134.16 94.9268C118.117 94.7994 107.282 106.178 107.276 123.151C107.271 140.281 117.812 151.802 133.658 151.984C149.542 152.169 160.362 140.747 160.498 123.65C160.634 106.494 150.142 95.0514 134.16 94.9268ZM143.256 131.827C141.541 135.967 138.598 138.734 133.858 138.653C129.226 138.574 126.086 136.112 124.455 131.819C122.36 126.303 122.355 120.637 124.307 115.173C125.782 111.051 128.725 108.299 133.58 108.221C138.653 108.137 141.744 110.64 143.467 115.179C144.49 117.864 144.956 120.643 144.661 123.522C145.026 126.431 144.345 129.2 143.256 131.827Z" fill="white"/>
<path d="M203.891 96.5096C199.108 96.3271 198.656 98.2188 198.723 102.092C198.896 111.967 198.723 121.852 198.688 131.73C198.662 138.561 196.834 140.015 190.104 138.654C184.765 137.576 183.169 133.63 183.03 128.958C182.813 121.718 182.923 114.47 182.937 107.225C182.955 96.1939 182.972 96.3387 171.776 96.4459C168.427 96.4778 167.158 97.2223 167.236 100.791C167.445 110.226 166.967 119.682 167.32 129.108C167.9 144.566 175.518 151.785 190.988 151.939C197.358 152.003 203.627 150.919 209.919 149.923C213.697 149.326 214.453 147.573 214.366 144.201C214.189 137.182 214.348 130.151 214.363 123.126C214.372 117.857 214.386 112.587 214.403 107.318C214.441 96.585 214.43 96.9123 203.891 96.5096Z" fill="white"/>
<path d="M100.453 138.277C95.8092 136.589 94.8533 133.225 94.862 129.022C94.8793 120.687 94.9112 112.356 94.9344 104.022C94.9518 97.0054 94.9691 89.9862 94.9981 82.9699C95.0358 74.2764 95.0705 74.4994 86.2901 75.6582C81.3509 76.31 79.5461 78.0394 79.6851 83.4363C80.1052 99.8733 79.7025 116.328 79.7605 132.773C79.8039 145.102 84.8184 150.117 97.0491 151.174C100.247 151.452 101.901 150.441 101.777 147.643C101.641 144.497 106.056 140.317 100.453 138.277Z" fill="white"/>
<path d="M333.116 87.8483H306.177V106.588H330.931V120.537H306.177V150.189H288.981V73.8477H333.116V87.8483Z" fill="white"/>
<path d="M370.008 151.518C360.923 151.518 353.78 148.971 348.58 143.879C343.38 138.786 340.781 131.874 340.781 123.143C340.781 114.128 343.478 107.074 348.875 101.981C354.269 96.8882 361.564 94.3418 370.755 94.3418C379.805 94.3418 386.906 96.8911 392.05 101.981C397.195 107.074 399.771 113.809 399.771 122.184C399.771 131.234 397.117 138.386 391.81 143.638C386.503 148.89 379.235 151.518 370.008 151.518ZM370.434 107.227C366.459 107.227 363.371 108.595 361.17 111.326C358.968 114.061 357.87 117.928 357.87 122.931C357.87 133.401 362.094 138.635 370.538 138.635C378.594 138.635 382.624 133.259 382.624 122.505C382.624 112.32 378.56 107.227 370.434 107.227Z" fill="white"/>
<path d="M462.001 95.6758L444.008 122.081L461.896 150.19H442.519L434.639 135.496C433.999 134.326 433.237 132.675 432.348 130.546H432.136C431.603 132.038 430.876 133.634 429.952 135.337L422.02 150.19H402.695L421.114 123.04L403.814 95.6758H423.298L431.07 110.954C432.099 112.976 432.826 114.679 433.255 116.064H433.469C434.037 114.395 434.799 112.657 435.758 110.847L443.689 95.6758H462.001Z" fill="white"/>
<path d="M223.25 135.025C226.239 143.878 232.442 149.061 241.425 151.248C250 153.336 258.354 151.477 266.822 150.387C269.504 150.043 270.857 149.194 271.492 147.65C271.668 147.218 271.79 146.729 271.868 146.181C271.961 145.529 271.999 144.799 271.993 143.974C271.891 128.217 271.976 112.458 272.045 96.6992C272.057 94.3238 272.065 91.9483 272.074 89.5729C272.08 87.7507 272.091 85.9286 272.097 84.1093C272.126 74.68 272.152 74.8683 262.587 76.3717C258.291 77.0467 255.999 78.246 256.625 83.2576C257.19 87.7652 256.718 92.4031 256.703 96.6761C254.591 97.5219 253.291 96.4008 251.819 96.0764C241.115 93.7183 231.616 97.1251 226.384 105.141C226.297 105.271 226.213 105.404 226.129 105.541L223.064 112.626C220.802 119.953 220.701 127.473 223.25 135.025ZM237.624 117.922C238.064 115.819 238.809 113.915 239.878 112.458C241.862 109.75 244.33 108.817 246.984 108.666C248.945 108.553 251.008 108.869 253.05 109.214C257.859 110.022 256.567 113.898 256.636 116.995C256.694 119.622 256.634 122.253 256.625 124.88C256.619 126.633 256.926 128.458 256.538 130.121C255.863 133.032 258.821 137.403 254.4 138.69C253.56 138.933 252.714 139.107 251.868 139.211C247.966 139.689 244.107 138.6 241.089 135.344C238.571 132.624 237.221 127.858 237.143 123.154C237.12 121.36 237.277 119.579 237.624 117.922Z" fill="white"/>
</svg>
