<svg xmlns="http://www.w3.org/2000/svg" width="80" height="75" viewBox="0 0 80 75" fill="none"><path d="M14 56.2977V72.723C14 73.152 13.0097 73.5 11.7864 73.5H4.2136C2.9903 73.5 2 73.152 2 72.723V56.2773C2 55.8477 2.9903 55.5 4.2136 55.5H11.7864C13.0097 55.5205 14 55.8682 14 56.2977Z" stroke="white" stroke-width="3" stroke-miterlimit="10"></path><path d="M35 47.6659V72.334C35 72.978 33.9271 73.5 32.6019 73.5H24.3981C23.0728 73.5 22 72.978 22 72.334V47.6659C22 47.0216 23.0728 46.5 24.3981 46.5H32.6019C33.9271 46.5307 35 47.0216 35 47.6659Z" stroke="white" stroke-width="3" stroke-miterlimit="10"></path><path d="M78 33.3137V71.686C78 72.689 76.927 73.5 75.602 73.5H67.3981C66.0728 73.5 65 72.689 65 71.686V33.3137C65 32.3114 66.0728 31.5 67.3981 31.5H75.602C76.927 31.5478 78 32.3114 78 33.3137Z" stroke="white" stroke-width="3" stroke-miterlimit="10"></path><path d="M57 22.8488V71.211C57 72.476 55.9271 73.5 54.6019 73.5H46.3981C45.0728 73.5 44 72.476 44 71.211V22.7887C44 21.5239 45.0728 20.5 46.3981 20.5H54.6019C55.9271 20.5603 57 21.5841 57 22.8488Z" fill="#EB4E00" stroke="white" stroke-width="3" stroke-miterlimit="10"></path><path d="M7.5 46L50 6.5L71.5 18" stroke="white" stroke-width="2" stroke-dasharray="3 3"></path><path d="M7.5 49C9.15685 49 10.5 47.6569 10.5 46C10.5 44.3431 9.15685 43 7.5 43C5.84315 43 4.5 44.3431 4.5 46C4.5 47.6569 5.84315 49 7.5 49Z" fill="#F5F6FA" stroke="white" stroke-width="3"></path><path d="M50 11C52.4853 11 54.5 8.98528 54.5 6.5C54.5 4.01472 52.4853 2 50 2C47.5147 2 45.5 4.01472 45.5 6.5C45.5 8.98528 47.5147 11 50 11Z" fill="#EB4E00" stroke="white" stroke-width="3"></path><path d="M71.5 21C73.1569 21 74.5 19.6569 74.5 18C74.5 16.3431 73.1569 15 71.5 15C69.8431 15 68.5 16.3431 68.5 18C68.5 19.6569 69.8431 21 71.5 21Z" fill="white" stroke="white" stroke-width="3"></path></svg>