<svg xmlns="http://www.w3.org/2000/svg" width="74" height="74" viewBox="0 0 74 74" fill="none"><path d="M57.0527 60.29C57.4038 60.29 57.7406 60.1505 57.9889 59.9022C58.2372 59.6539 58.3767 59.3171 58.3767 58.966C58.3767 58.6148 58.2372 58.278 57.9889 58.0297C57.7406 57.7814 57.4038 57.642 57.0527 57.642C56.7015 57.642 56.3647 57.7814 56.1164 58.0297C55.8681 58.278 55.7287 58.6148 55.7287 58.966C55.7287 59.3171 55.8681 59.6539 56.1164 59.9022C56.3647 60.1505 56.7015 60.29 57.0527 60.29ZM55.3017 14.608C55.6528 14.608 55.9896 14.4685 56.2379 14.2202C56.4862 13.9719 56.6257 13.6351 56.6257 13.284C56.6257 12.9328 56.4862 12.596 56.2379 12.3478C55.9896 12.0995 55.6528 11.96 55.3017 11.96C54.9505 11.96 54.6137 12.0995 54.3654 12.3478C54.1171 12.596 53.9777 12.9328 53.9777 13.284C53.9777 13.6351 54.1171 13.9719 54.3654 14.2202C54.6137 14.4685 54.9505 14.608 55.3017 14.608ZM27.2967 23.281C27.6478 23.281 27.9846 23.1415 28.2329 22.8932C28.4812 22.6449 28.6207 22.3081 28.6207 21.957C28.6207 21.6058 28.4812 21.269 28.2329 21.0207C27.9846 20.7724 27.6478 20.633 27.2967 20.633C26.9455 20.633 26.6087 20.7724 26.3604 21.0207C26.1121 21.269 25.9727 21.6058 25.9727 21.957C25.9727 22.3081 26.1121 22.6449 26.3604 22.8932C26.6087 23.1415 26.9455 23.281 27.2967 23.281Z" fill="white" stroke="white" stroke-width="3" stroke-miterlimit="10" stroke-linecap="round"></path><path d="M18.4256 51.2193C18.7767 51.2193 19.1135 51.0798 19.3618 50.8315C19.6101 50.5832 19.7496 50.2464 19.7496 49.8953C19.7496 49.5441 19.6101 49.2074 19.3618 48.9591C19.1135 48.7108 18.7767 48.5713 18.4256 48.5713C18.0744 48.5713 17.7377 48.7108 17.4894 48.9591C17.2411 49.2074 17.1016 49.5441 17.1016 49.8953C17.1016 50.2464 17.2411 50.5832 17.4894 50.8315C17.7377 51.0798 18.0744 51.2193 18.4256 51.2193Z" stroke="white" stroke-width="3" stroke-miterlimit="10" stroke-linecap="round"></path><path d="M38.09 73.2661L37.427 36.8531L1 36.2061C1 36.2061 3.133 54.53 12.667 63.203C22.2 71.942 38.09 73.2661 38.09 73.2661Z" fill="#EB4E00"></path><path d="M24.5168 65.6523C24.6907 65.6523 24.8628 65.6181 25.0235 65.5515C25.1841 65.485 25.3301 65.3875 25.453 65.2645C25.576 65.1416 25.6735 64.9956 25.74 64.835C25.8066 64.6743 25.8408 64.5022 25.8408 64.3283C25.8408 64.1544 25.8066 63.9823 25.74 63.8216C25.6735 63.661 25.576 63.515 25.453 63.3921C25.3301 63.2691 25.1841 63.1716 25.0235 63.1051C24.8628 63.0385 24.6907 63.0043 24.5168 63.0043C24.1657 63.0043 23.8289 63.1438 23.5806 63.3921C23.3323 63.6404 23.1928 63.9772 23.1928 64.3283C23.1928 64.6794 23.3323 65.0162 23.5806 65.2645C23.8289 65.5128 24.1657 65.6523 24.5168 65.6523ZM21.2068 47.1143C21.3837 47.1192 21.5597 47.0885 21.7245 47.0242C21.8894 46.9599 22.0396 46.8632 22.1665 46.7398C22.2933 46.6164 22.3941 46.4689 22.4629 46.3059C22.5317 46.1429 22.5672 45.9677 22.5672 45.7908C22.5672 45.6139 22.5317 45.4387 22.4629 45.2757C22.3941 45.1127 22.2933 44.9652 22.1665 44.8418C22.0396 44.7184 21.8894 44.6217 21.7245 44.5574C21.5597 44.4931 21.3837 44.4624 21.2068 44.4673C20.8557 44.4673 20.5189 44.6068 20.2706 44.8551C20.0223 45.1034 19.8828 45.4402 19.8828 45.7913C19.8828 46.1424 20.0223 46.4792 20.2706 46.7275C20.5189 46.9758 20.8557 47.1143 21.2068 47.1143Z" fill="white" stroke="white" stroke-width="3" stroke-miterlimit="10" stroke-linecap="round"></path><path d="M37.0306 61.2156C50.3406 61.2156 61.1296 50.4266 61.1296 37.1176C61.1296 23.8076 50.3396 13.0186 37.0306 13.0186C23.7206 13.0186 12.9316 23.8086 12.9316 37.1176C12.9316 50.4276 23.7216 61.2166 37.0316 61.2166L37.0306 61.2156Z" stroke="white" stroke-width="3" stroke-miterlimit="10"></path><path d="M36.8989 38.9717C37.3906 38.9717 37.8622 38.7763 38.2099 38.4286C38.5576 38.0809 38.7529 37.6094 38.7529 37.1177C38.7529 36.626 38.5576 36.1544 38.2099 35.8067C37.8622 35.459 37.3906 35.2637 36.8989 35.2637C36.4072 35.2637 35.9356 35.459 35.5879 35.8067C35.2403 36.1544 35.0449 36.626 35.0449 37.1177C35.0449 37.6094 35.2403 38.0809 35.5879 38.4286C35.9356 38.7763 36.4072 38.9717 36.8989 38.9717Z" fill="white" stroke="white" stroke-width="1.5" stroke-miterlimit="10"></path><path d="M37.0305 48.8364C43.5025 48.8364 48.7485 43.5904 48.7485 37.1184C48.7485 30.6464 43.5025 25.3994 37.0305 25.3994C30.5585 25.3994 25.3125 30.6464 25.3125 37.1184C25.3125 43.5904 30.5585 48.8364 37.0305 48.8364Z" stroke="white" stroke-width="3" stroke-miterlimit="10"></path><path d="M37.0301 72.236C56.4251 72.236 72.1481 56.513 72.1481 37.118C72.1481 17.723 56.4251 2 37.0301 2C17.6351 2 1.91211 17.723 1.91211 37.118C1.91211 56.513 17.6351 72.236 37.0301 72.236Z" stroke="white" stroke-width="3" stroke-miterlimit="10"></path></svg>