<svg xmlns="http://www.w3.org/2000/svg" width="97" height="72" viewBox="0 0 97 72" fill="none"><path d="M61.25 16.571H4.67701C4.32468 16.5705 3.97591 16.5005 3.65064 16.3651C3.32537 16.2297 3.02999 16.0315 2.78136 15.7819C2.53274 15.5322 2.33576 15.236 2.20169 14.9102C2.06762 14.5844 1.99909 14.2353 2.00001 13.883V4.688C1.99909 4.33567 2.06762 3.98662 2.20169 3.6608C2.33576 3.33498 2.53274 3.03878 2.78136 2.78913C3.02999 2.53949 3.32537 2.3413 3.65064 2.2059C3.97591 2.07049 4.32468 2.00052 4.67701 2H61.321C61.6733 2.00052 62.0221 2.07049 62.3474 2.2059C62.6726 2.3413 62.968 2.53949 63.2167 2.78913C63.4653 3.03878 63.6623 3.33498 63.7963 3.6608C63.9304 3.98662 63.9989 4.33567 63.998 4.688V13.883C63.928 15.368 62.73 16.571 61.251 16.571H61.25Z" stroke="white" stroke-width="3" stroke-miterlimit="10"></path><path d="M68.5056 37.5788H11.8626C11.5101 37.5783 11.1613 37.5083 10.836 37.3728C10.5106 37.2374 10.2152 37.0391 9.96656 36.7894C9.71792 36.5396 9.52097 36.2433 9.38696 35.9173C9.25294 35.5914 9.18451 35.2422 9.18556 34.8898V25.6948C9.18464 25.3425 9.25317 24.9935 9.38724 24.6676C9.52131 24.3418 9.71829 24.0456 9.96691 23.796C10.2155 23.5463 10.5109 23.3481 10.8362 23.2127C11.1615 23.0773 11.5102 23.0074 11.8626 23.0068H68.5056C68.8579 23.0074 69.2067 23.0773 69.5319 23.2127C69.8572 23.3481 70.1526 23.5463 70.4012 23.796C70.6498 24.0456 70.8468 24.3418 70.9809 24.6676C71.1149 24.9935 71.1835 25.3425 71.1826 25.6948V34.8898C71.1126 36.3758 69.9856 37.5788 68.5056 37.5788Z" fill="#EB4E00" stroke="white" stroke-width="3" stroke-miterlimit="10"></path><path d="M61.25 58.5153H4.67701C4.32468 58.5148 3.97591 58.4448 3.65064 58.3094C3.32537 58.174 3.02999 57.9758 2.78136 57.7262C2.53274 57.4766 2.33576 57.1804 2.20169 56.8545C2.06762 56.5287 1.99909 56.1797 2.00001 55.8273V46.6323C1.99909 46.28 2.06762 45.931 2.20169 45.6051C2.33576 45.2793 2.53274 44.9831 2.78136 44.7335C3.02999 44.4838 3.32537 44.2856 3.65064 44.1502C3.97591 44.0148 4.32468 43.9449 4.67701 43.9443H61.321C61.6733 43.9449 62.0221 44.0148 62.3474 44.1502C62.6726 44.2856 62.968 44.4838 63.2167 44.7335C63.4653 44.9831 63.6623 45.2793 63.7963 45.6051C63.9304 45.931 63.9989 46.28 63.998 46.6323V55.8273C63.928 57.3123 62.73 58.5153 61.251 58.5153H61.25Z" stroke="white" stroke-width="3" stroke-miterlimit="10"></path><path d="M76.739 69.629C87.09 69.629 95.48 61.206 95.48 50.815C95.48 40.424 87.09 32 76.74 32C66.39 32 58 40.424 58 50.815C58 61.205 66.389 69.629 76.739 69.629Z" stroke="white" stroke-width="3" stroke-miterlimit="10"></path><path d="M76.5293 38.4375V51.8055L85.1243 46.4295" stroke="white" stroke-width="3" stroke-miterlimit="10" stroke-linecap="round" stroke-linejoin="round"></path><path d="M77.3739 53.3616C78.7739 53.3616 79.9099 52.2216 79.9099 50.8156C79.9107 50.4818 79.8457 50.1511 79.7187 49.8425C79.5916 49.5338 79.405 49.2532 79.1695 49.0167C78.934 48.7802 78.6543 48.5923 78.3462 48.464C78.038 48.3356 77.7077 48.2692 77.3739 48.2686C75.9739 48.2686 74.8379 49.4086 74.8379 50.8156C74.8372 51.1492 74.9023 51.4798 75.0294 51.7883C75.1565 52.0969 75.3431 52.3774 75.5786 52.6138C75.8141 52.8502 76.0938 53.0379 76.4019 53.1662C76.7099 53.2945 77.0402 53.3609 77.3739 53.3616Z" stroke="white" stroke-width="3" stroke-miterlimit="10"></path></svg>