<svg xmlns="http://www.w3.org/2000/svg" width="98" height="67" viewBox="0 0 98 67" fill="none"><path d="M85.5488 59.7813H12.2318C9.37077 59.7813 7.00977 57.4303 7.00977 54.5803V12.1883C7.00977 9.3383 9.36977 6.9873 12.2318 6.9873H85.5488C88.4098 6.9873 90.7698 9.3383 90.7698 12.1883V54.6513C90.7698 57.4303 88.4098 59.7813 85.5488 59.7813Z" fill="#EB4E00" stroke="white" stroke-width="3" stroke-miterlimit="10"></path><path d="M86.263 64.697H11.515C6.29395 64.697 2.00195 60.493 2.00195 55.221V11.476C2.00195 6.274 6.22195 2 11.515 2H86.263C91.485 2 95.776 6.203 95.776 11.476V55.292C95.705 60.493 91.485 64.697 86.263 64.697Z" stroke="white" stroke-width="2.88" stroke-miterlimit="10"></path><path d="M23.6035 37.3383H37.6955L41.7015 28.5033L46.1355 49.3793L53.4315 18.0303L58.2245 37.6943H71.9575" stroke="white" stroke-width="3" stroke-miterlimit="10" stroke-linecap="round" stroke-linejoin="round"></path></svg>