<svg xmlns="http://www.w3.org/2000/svg" width="86" height="75" viewBox="0 0 86 75" fill="none"><path d="M16.9833 5.7893V5.2893H16.4833H8.4916C6.7538 5.2893 5.3278 6.6999 5.3278 8.434V16.368V16.868H5.8278H16.4833H16.9833V16.368V5.7893ZM5.8278 21.1573H5.3278V21.6573V66.6165C5.3278 68.3506 6.7538 69.761 8.4916 69.761H77.753C79.49 69.761 80.916 68.3506 80.916 66.6165V21.6573V21.1573H80.416H5.8278ZM80.416 16.868H80.916V16.368V8.434C80.916 6.6999 79.49 5.2893 77.753 5.2893H21.811H21.311V5.7893V16.368V16.868H21.811H80.416ZM8.4916 1H77.753C81.892 1 85.244 4.3333 85.244 8.434V66.6165C85.244 70.717 81.892 74.051 77.753 74.051H8.4916C4.3523 74.051 1 70.717 1 66.6165V8.434C1 4.3333 4.3523 1 8.4916 1Z" fill="white" stroke="#F5F6FA"></path><path d="M75.0597 24.6094H10.3245C9.17879 24.6094 8.25 25.5382 8.25 26.6839V38.0338C8.25 39.1795 9.17879 40.1083 10.3245 40.1083H75.0597C76.2054 40.1083 77.1342 39.1795 77.1342 38.0338V26.6839C77.1342 25.5382 76.2054 24.6094 75.0597 24.6094Z" fill="#EB4E00"></path><path d="M42.0551 38.2459C41.9053 38.3965 41.7022 38.4811 41.4904 38.4811C41.2787 38.4811 41.0756 38.3965 40.9258 38.2459L35.7338 33.0241C35.5841 32.8735 35.5 32.6692 35.5 32.4563C35.5 32.2433 35.5841 32.039 35.7338 31.8884L36.863 30.7521C36.9372 30.6775 37.0253 30.6183 37.1222 30.5779C37.2191 30.5376 37.323 30.5168 37.4279 30.5168C37.5328 30.5168 37.6367 30.5376 37.7336 30.5779C37.8306 30.6183 37.9186 30.6775 37.9928 30.7521L41.4904 34.2698L48.9819 26.7354C49.0561 26.6607 49.1442 26.6016 49.2411 26.5612C49.338 26.5208 49.4419 26.5 49.5468 26.5C49.6517 26.5 49.7556 26.5208 49.8525 26.5612C49.9495 26.6016 50.0375 26.6607 50.1117 26.7354L51.241 27.8716C51.3907 28.0223 51.4747 28.2265 51.4747 28.4395C51.4747 28.6525 51.3907 28.8567 51.241 29.0074L42.0551 38.2459Z" fill="white"></path><path d="M75.0597 44.4141H10.3245C9.17879 44.4141 8.25 45.3429 8.25 46.4886V57.8385C8.25 58.9842 9.17879 59.913 10.3245 59.913H75.0597C76.2054 59.913 77.1342 58.9842 77.1342 57.8385V46.4886C77.1342 45.3429 76.2054 44.4141 75.0597 44.4141Z" fill="#DBDCDE"></path><path d="M8.5 67.5745C8.5 66.4288 9.4288 65.5 10.5745 65.5H75.4255C76.571 65.5 77.5 66.4288 77.5 67.5745V70.5H8.5V67.5745Z" fill="#DBDCDE"></path></svg>